<?xml version="1.0" encoding="UTF-8" standalone="no"?>
<svg
   height="24"
   viewBox="0 -960 960 960"
   width="24"
   version="1.1"
   id="svg1"
   sodipodi:docname="change_i.svg"
   inkscape:version="1.3.2 (091e20e, 2023-11-25, custom)"
   xml:space="preserve"
   xmlns:inkscape="http://www.inkscape.org/namespaces/inkscape"
   xmlns:sodipodi="http://sodipodi.sourceforge.net/DTD/sodipodi-0.dtd"
   xmlns="http://www.w3.org/2000/svg"
   xmlns:svg="http://www.w3.org/2000/svg"><defs
     id="defs1" /><sodipodi:namedview
     id="namedview1"
     pagecolor="#ffffff"
     bordercolor="#000000"
     borderopacity="0.25"
     inkscape:showpageshadow="2"
     inkscape:pageopacity="0.0"
     inkscape:pagecheckerboard="0"
     inkscape:deskcolor="#d1d1d1"
     showgrid="false"
     showguides="true"
     inkscape:zoom="24.188944"
     inkscape:cx="15.813009"
     inkscape:cy="11.678889"
     inkscape:window-width="1920"
     inkscape:window-height="1017"
     inkscape:window-x="-8"
     inkscape:window-y="-8"
     inkscape:window-maximized="1"
     inkscape:current-layer="svg1"><sodipodi:guide
       position="480,468.8916"
       orientation="-1,0"
       id="guide2"
       inkscape:locked="false"
       inkscape:label=""
       inkscape:color="rgb(0,134,229)" /><sodipodi:guide
       position="629.08648,480"
       orientation="0,1"
       id="guide3"
       inkscape:locked="false"
       inkscape:label=""
       inkscape:color="rgb(0,134,229)" /></sodipodi:namedview><path
     style="fill:#000000;stroke:#ff0000;stroke-width:0.0132583;stroke-dasharray:none"
     d="M 457.7832,-79.62788 C 419.44996,-82.998 390.24585,-88.679 359.00361,-98.8432 228.4057,-141.33128 127.38415,-249.66696 94.62521,-382.36296 c -8.65957,-35.07716 -11.56858,-59.48176 -11.56858,-97.0524 0,-37.5706 2.909,-61.9752 11.56858,-97.05236 35.33806,-143.1432 149.33251,-256.54368 293.3054,-291.77712 33.25139,-8.13738 58.20863,-11.03714 94.99267,-11.03714 37.5706,0 61.9752,2.909 97.05236,11.56858 142.2484,35.11716 255.25316,147.93458 291.14364,290.66102 8.55856,34.03502 11.67064,60.07058 11.67064,97.63702 0,37.56648 -3.112,63.602 -11.67064,97.63704 -35.84156,142.53192 -148.079,254.76756 -290.559,290.5544 -31.7508,7.97484 -55.59756,11.03056 -90.6212,11.61212 -14.79168,0.244 -29.26184,0.24 -32.15588,-0.01608 z m 61.32096,-81.75092 c 73.20672,-8.56344 138.5584,-40.07012 190.17196,-91.68368 60.59756,-60.59756 93.45228,-140.17568 93.45228,-226.35288 0,-64.4224 -17.82696,-124.02463 -52.80776,-176.55645 -13.52552,-20.31172 -23.28088,-32.27824 -40.12896,-49.22472 -75.66388,-76.10571 -183.04244,-108.7669 -289.83308,-88.15811 -60.23879,11.62507 -118.84172,43.03994 -163.38819,87.58644 -75.69458,75.69457 -108.1334,182.84724 -87.58644,289.31752 18.42156,95.45684 83.29486,180.12668 171.28399,223.55244 35.11951,17.33272 67.00044,26.83968 105.76372,31.53888 17.51016,2.1228 54.84444,2.1128 73.07248,-0.0194 z"
     id="path6" /><text
     xml:space="preserve"
     style="font-size:456.542px;display:none;fill:#0000ff;stroke:none;stroke-width:0.431379;stroke-dasharray:none"
     x="477.58463"
     y="-332.68106"
     id="text8"><tspan
       sodipodi:role="line"
       id="tspan8"
       style="font-style:normal;font-variant:normal;font-weight:normal;font-stretch:normal;font-family:'Arial Rounded MT Bold';-inkscape-font-specification:'Arial Rounded MT Bold, ';text-align:center;text-anchor:middle;fill:#0000ff;stroke:none;stroke-width:0.431378"
       x="477.58463"
       y="-332.68106">P</tspan></text><g
     id="g1"
     transform="translate(0,-80)"><path
       style="fill:#0000ff;stroke:none;stroke-width:0.000468751;stroke-dasharray:none"
       d="M 11.638778,8.8435659 C 11.344974,8.716131 11.212324,8.5087346 11.212324,8.1768128 c 0,-0.5778878 0.664078,-0.9093227 1.161888,-0.5798874 0.196929,0.1303213 0.297079,0.3314708 0.296186,0.5948801 -0.0018,0.523619 -0.541255,0.8644524 -1.03162,0.6517604 z"
       id="path9"
       transform="matrix(40,0,0,40,0,-960)" /><path
       style="fill:#0000ff;stroke:none;stroke-width:0.000468751;stroke-dasharray:none"
       d="m 11.680119,15.749783 c -0.191099,-0.08587 -0.281727,-0.172482 -0.388035,-0.370856 -0.08777,-0.163792 -0.08862,-0.18897 -0.08862,-2.645837 v -2.480472 l 0.09595,-0.194812 c 0.287406,-0.5835285 1.148693,-0.5030988 1.331372,0.124328 0.03033,0.104176 0.0406,0.939923 0.03211,2.612968 -0.01179,2.322268 -0.01689,2.468675 -0.0913,2.61852 -0.153696,0.309541 -0.587048,0.47295 -0.89148,0.336161 z"
       id="path10"
       transform="matrix(40,0,0,40,0,-960)" /></g><path
     style="fill:#000000;stroke:none;stroke-width:0.0293936;stroke-dasharray:none"
     d="M 7.573444,16.787307 C 6.5773892,16.210402 5.7673717,15.722623 5.7734051,15.703352 c 0.00992,-0.0317 3.4884134,-2.060758 3.6182299,-2.110573 0.044503,-0.01708 0.054829,0.1472 0.054829,0.872218 v 0.893259 h 2.74919 2.74919 V 14.46942 c 0,-0.488859 0.01196,-0.888835 0.02658,-0.888835 0.07088,0 3.693282,2.125251 3.664882,2.150174 -0.04584,0.04023 -3.56141,2.06691 -3.633022,2.09439 -0.04925,0.0189 -0.05844,-0.118086 -0.05844,-0.870833 v -0.893259 h -2.74919 -2.74919 v 0.888835 c 0,0.48886 -0.013953,0.888273 -0.031006,0.887584 -0.017053,-6.89e-4 -0.8459598,-0.473265 -1.842015,-1.050169 z"
     id="path3"
     transform="matrix(40,0,0,40,0,-960)" /></svg>
