<?xml version="1.0" encoding="UTF-8" standalone="no"?>
<svg
   height="24"
   viewBox="0 -960 960 960"
   width="24"
   version="1.1"
   id="svg1"
   sodipodi:docname="change_p.svg"
   inkscape:version="1.3.2 (091e20e, 2023-11-25, custom)"
   xmlns:inkscape="http://www.inkscape.org/namespaces/inkscape"
   xmlns:sodipodi="http://sodipodi.sourceforge.net/DTD/sodipodi-0.dtd"
   xmlns="http://www.w3.org/2000/svg"
   xmlns:svg="http://www.w3.org/2000/svg">
  <defs
     id="defs1" />
  <sodipodi:namedview
     id="namedview1"
     pagecolor="#ffffff"
     bordercolor="#000000"
     borderopacity="0.25"
     inkscape:showpageshadow="2"
     inkscape:pageopacity="0.0"
     inkscape:pagecheckerboard="0"
     inkscape:deskcolor="#d1d1d1"
     showgrid="false"
     showguides="true"
     inkscape:zoom="24.188944"
     inkscape:cx="15.813009"
     inkscape:cy="11.678889"
     inkscape:window-width="1920"
     inkscape:window-height="1017"
     inkscape:window-x="-8"
     inkscape:window-y="-8"
     inkscape:window-maximized="1"
     inkscape:current-layer="svg1">
    <sodipodi:guide
       position="480,468.8916"
       orientation="-1,0"
       id="guide2"
       inkscape:locked="false"
       inkscape:label=""
       inkscape:color="rgb(0,134,229)" />
    <sodipodi:guide
       position="629.08648,480"
       orientation="0,1"
       id="guide3"
       inkscape:locked="false"
       inkscape:label=""
       inkscape:color="rgb(0,134,229)" />
  </sodipodi:namedview>
  <path
     style="fill:#000000;stroke:#ff0000;stroke-width:0.0132583;stroke-dasharray:none"
     d="M 457.7832,-79.62788 C 419.44996,-82.998 390.24585,-88.679 359.00361,-98.8432 228.4057,-141.33128 127.38415,-249.66696 94.62521,-382.36296 c -8.65957,-35.07716 -11.56858,-59.48176 -11.56858,-97.0524 0,-37.5706 2.909,-61.9752 11.56858,-97.05236 35.33806,-143.1432 149.33251,-256.54368 293.3054,-291.77712 33.25139,-8.13738 58.20863,-11.03714 94.99267,-11.03714 37.5706,0 61.9752,2.909 97.05236,11.56858 142.2484,35.11716 255.25316,147.93458 291.14364,290.66102 8.55856,34.03502 11.67064,60.07058 11.67064,97.63702 0,37.56648 -3.112,63.602 -11.67064,97.63704 -35.84156,142.53192 -148.079,254.76756 -290.559,290.5544 -31.7508,7.97484 -55.59756,11.03056 -90.6212,11.61212 -14.79168,0.244 -29.26184,0.24 -32.15588,-0.01608 z m 61.32096,-81.75092 c 73.20672,-8.56344 138.5584,-40.07012 190.17196,-91.68368 60.59756,-60.59756 93.45228,-140.17568 93.45228,-226.35288 0,-64.4224 -17.82696,-124.02463 -52.80776,-176.55645 -13.52552,-20.31172 -23.28088,-32.27824 -40.12896,-49.22472 -75.66388,-76.10571 -183.04244,-108.7669 -289.83308,-88.15811 -60.23879,11.62507 -118.84172,43.03994 -163.38819,87.58644 -75.69458,75.69457 -108.1334,182.84724 -87.58644,289.31752 18.42156,95.45684 83.29486,180.12668 171.28399,223.55244 35.11951,17.33272 67.00044,26.83968 105.76372,31.53888 17.51016,2.1228 54.84444,2.1128 73.07248,-0.0194 z"
     id="path6" />
  <path
     style="fill:#0000ff;stroke:none;stroke-width:0.01875;stroke-dasharray:none"
     d="m 383.87332,-409.81468 c -7.81597,-2.89308 -15.28747,-9.79048 -18.96596,-17.50872 -2.50807,-5.26244 -2.75844,-18.47104 -2.75844,-145.52104 v -139.73325 l 4.13412,-8.26824 c 3.05288,-6.10578 6.08033,-9.34947 11.57553,-12.40236 l 7.44142,-4.13412 h 70.28005 c 61.47416,0 71.84296,0.3672 82.75396,2.93064 42.95692,10.09231 67.95936,40.61364 70.53552,86.10509 2.7056,47.77732 -17.15064,81.50304 -57.37792,97.4562 -18.88756,7.49036 -36.12496,9.45424 -83.03244,9.46008 l -42.51804,0.005 -0.4768,54.9838 c -0.4512,52.0466 -0.6612,55.33716 -3.9312,61.5984 -6.99476,13.39312 -23.87677,20.12996 -37.65964,15.02824 z M 509.3236,-593.22 c 12.89716,-4.14872 23.1338,-11.495 28.29888,-20.30852 3.8344,-6.54296 4.72432,-10.254 5.28476,-22.03916 1.3488,-28.36056 -7.77516,-43.13074 -31.29552,-50.66266 -7.00672,-2.24376 -17.09084,-3.01288 -47.35004,-3.6114 l -38.44732,-0.76048 v 50.78758 50.78752 l 37.62048,-0.7664 c 28.33748,-0.5776 39.66072,-1.4228 45.88876,-3.4264 z"
     id="path10" />
  <path
     style="fill:#000000;stroke:none;stroke-width:1.17574;stroke-dasharray:none"
     d="m 302.93776,-288.50772 c -39.84219,-23.0762 -72.24289,-42.58736 -72.00156,-43.3582 0.3968,-1.268 139.53654,-82.43032 144.7292,-84.42292 1.78012,-0.6832 2.19316,5.888 2.19316,34.88872 v 35.73036 h 109.9676 109.9676 v -35.55344 c 0,-19.55436 0.4784,-35.5534 1.0632,-35.5534 2.8352,0 147.73128,85.01004 146.59528,86.00696 -1.8336,1.6092 -142.4564,82.6764 -145.32088,83.7756 -1.97,0.756 -2.3376,-4.72344 -2.3376,-34.83332 v -35.73036 h -109.9676 -109.9676 v 35.5534 c 0,19.5544 -0.55812,35.53092 -1.24024,35.50336 -0.68212,-0.0276 -33.83839,-18.9306 -73.68056,-42.00676 z"
     id="path3" />
</svg>
