<?xml version="1.0" encoding="UTF-8" standalone="no"?>
<!-- Created with Inkscape (http://www.inkscape.org/) -->

<svg
   width="14.247326mm"
   height="5.0270844mm"
   viewBox="0 0 14.247326 5.0270844"
   version="1.1"
   id="svg5"
   xml:space="preserve"
   xmlns:inkscape="http://www.inkscape.org/namespaces/inkscape"
   xmlns:sodipodi="http://sodipodi.sourceforge.net/DTD/sodipodi-0.dtd"
   xmlns="http://www.w3.org/2000/svg"
   xmlns:svg="http://www.w3.org/2000/svg"><sodipodi:namedview
     id="namedview7"
     pagecolor="#ffffff"
     bordercolor="#000000"
     borderopacity="0.25"
     inkscape:showpageshadow="2"
     inkscape:pageopacity="0.0"
     inkscape:pagecheckerboard="0"
     inkscape:deskcolor="#d1d1d1"
     inkscape:document-units="mm"
     showgrid="false" /><defs
     id="defs2" /><g
     inkscape:label="Camada 1"
     inkscape:groupmode="layer"
     id="layer1"
     transform="translate(-62.710851,-142.17146)"><g
       id="g388"
       style="fill:#000000"
       transform="translate(-1.678862)"
       inkscape:export-filename="p1.svg"
       inkscape:export-xdpi="96"
       inkscape:export-ydpi="96"><path
         d="m 75.157778,146.0939 0.833438,-0.50272 0.833438,0.50934 -0.218282,-0.9525 0.734224,-0.635 -0.965735,-0.086 -0.383645,-0.89959 -0.383646,0.89297 -0.965728,0.086 0.734218,0.64161 z m -0.800364,1.10463 0.429947,-1.8587 -1.441979,-1.25016 1.905,-0.16535 0.740834,-1.75287 0.740833,1.75287 1.904993,0.16535 -1.441976,1.25016 0.42996,1.8587 -1.63381,-0.98557 z m 1.633802,-2.31511 z"
         id="path122"
         style="fill:#000000;stroke-width:0.00661458" /><path
         style="fill:#000000;stroke-width:0.0438029;stroke-linecap:round;stroke-linejoin:round"
         d="m 74.941043,145.7935 c 0.08636,-0.31937 0.157258,-0.59286 0.15759,-0.60774 3.29e-4,-0.0149 -0.235397,-0.20664 -0.523847,-0.42616 -0.604486,-0.46 -0.613999,-0.43391 0.175153,-0.48051 0.763573,-0.0451 0.680275,0.007 0.989254,-0.61827 0.149116,-0.30176 0.287291,-0.53444 0.307049,-0.51707 0.01975,0.0174 0.144279,0.2509 0.276713,0.51895 0.132438,0.26806 0.261403,0.50887 0.286587,0.53514 0.02556,0.0267 0.258388,0.061 0.527251,0.0775 0.264796,0.0163 0.575188,0.0414 0.689763,0.0558 l 0.208313,0.0259 -0.523343,0.38715 c -0.302733,0.22392 -0.524521,0.41872 -0.526132,0.46207 -0.0016,0.0412 0.06115,0.31443 0.139304,0.60712 0.07816,0.2927 0.133845,0.53931 0.123775,0.54803 -0.01007,0.009 -0.279507,-0.12241 -0.598737,-0.29132 -0.31923,-0.16894 -0.599973,-0.30717 -0.623879,-0.30717 -0.0239,0 -0.302481,0.13754 -0.619056,0.30562 -0.316582,0.1681 -0.58621,0.30563 -0.599173,0.30563 -0.01297,0 0.04708,-0.26131 0.133415,-0.58068 z"
         id="path384" /></g><g
       id="g313"
       transform="translate(-6.3500003)"
       style="fill:#4d4d4d"><path
         d="m 75.40506,146.0939 0.833438,-0.50271 0.833437,0.50933 -0.218281,-0.9525 0.734219,-0.635 -0.96573,-0.086 -0.383645,-0.89959 -0.383646,0.89297 -0.965729,0.086 0.734218,0.64162 z m -0.800364,1.10464 0.429947,-1.8587 -1.441979,-1.25016 1.905,-0.16536 0.740834,-1.75287 0.740833,1.75287 1.905,0.16536 -1.441979,1.25016 0.429948,1.8587 -1.633802,-0.98557 z m 1.633802,-2.31511 z"
         id="path122-6"
         style="fill:#4d4d4d;stroke-width:0.00661458" /><path
         style="fill:#4d4d4d;stroke-width:0.0167433;stroke-linecap:round;stroke-linejoin:round"
         d="m 76.660045,146.40833 -0.63475,-0.3784 -0.637166,0.37332 c -0.350441,0.20535 -0.641623,0.36901 -0.647067,0.36373 -0.0055,-0.004 0.06447,-0.32203 0.155355,-0.70389 0.152133,-0.63915 0.163114,-0.69661 0.138226,-0.72325 -0.0148,-0.0159 -0.271529,-0.23605 -0.570368,-0.48917 -0.482457,-0.40861 -0.538181,-0.4608 -0.49719,-0.46548 0.0254,-0.002 0.363693,-0.0328 0.751778,-0.0662 l 0.70561,-0.0608 0.29755,-0.67043 c 0.163653,-0.36873 0.302304,-0.66546 0.30812,-0.65937 0.0059,0.006 0.138893,0.30416 0.29575,0.66237 0.15684,0.35819 0.290223,0.65685 0.296389,0.66367 0.0062,0.006 0.342168,0.0414 0.746666,0.0765 0.404494,0.0351 0.738708,0.0672 0.742695,0.071 0.004,0.004 -0.248193,0.22113 -0.5604,0.48282 -0.312211,0.26169 -0.564835,0.48378 -0.561394,0.4935 0.0074,0.021 0.330428,1.39316 0.330428,1.40369 0,0.0178 -0.06146,-0.017 -0.660257,-0.37386 z"
         id="path278" /></g><g
       id="g309"
       transform="translate(-9.6351387,6.9996333e-4)"
       style="fill:#808080"><path
         d="m 74.158389,146.0932 0.833438,-0.50271 0.833437,0.50933 -0.218281,-0.9525 0.734219,-0.635 -0.96573,-0.086 -0.383645,-0.89959 -0.383646,0.89297 -0.965729,0.086 0.734218,0.64162 z m -0.800364,1.10464 0.429947,-1.8587 -1.441979,-1.25016 1.905,-0.16536 0.740834,-1.75287 0.740833,1.75287 1.904996,0.16536 -1.441975,1.25016 0.429948,1.8587 -1.633802,-0.98557 z m 1.633802,-2.31511 z"
         id="path122-6-0"
         style="fill:#808080;stroke-width:0.00661458" /><path
         style="fill:#808080;stroke-width:0.0161493;stroke-linecap:round;stroke-linejoin:round"
         d="m 75.444744,146.14623 -0.626609,-0.35658 -0.628995,0.35182 c -0.345946,0.19348 -0.633391,0.34774 -0.638766,0.34275 -0.0053,-0.004 0.06362,-0.30348 0.153378,-0.66334 0.150182,-0.60231 0.161021,-0.65647 0.136472,-0.68158 -0.01464,-0.0151 -0.268044,-0.22244 -0.563053,-0.46097 -0.476269,-0.38509 -0.531278,-0.43425 -0.49081,-0.43867 0.02508,-0.002 0.359028,-0.0308 0.742135,-0.0624 l 0.696559,-0.0573 0.293732,-0.63181 c 0.161555,-0.34747 0.298428,-0.62709 0.304169,-0.62136 0.0057,0.005 0.137117,0.28664 0.291955,0.62418 0.154843,0.33758 0.286501,0.61903 0.29259,0.62546 0.006,0.005 0.337778,0.0389 0.737087,0.0721 0.399308,0.033 0.729233,0.0633 0.733167,0.067 0.0039,0.004 -0.245008,0.20841 -0.553209,0.45501 -0.308206,0.24662 -0.557593,0.45592 -0.554195,0.46509 0.0073,0.0197 0.32619,1.31287 0.32619,1.32281 0,0.0168 -0.06067,-0.016 -0.651788,-0.35236 z"
         id="path278-5" /></g></g></svg>
