<?xml version="1.0" encoding="UTF-8" standalone="no"?>
<!-- Created with Inkscape (http://www.inkscape.org/) -->

<svg
   width="5.2916565mm"
   height="5.0270844mm"
   viewBox="0 0 5.2916565 5.0270844"
   version="1.1"
   id="svg5"
   xml:space="preserve"
   xmlns:inkscape="http://www.inkscape.org/namespaces/inkscape"
   xmlns:sodipodi="http://sodipodi.sourceforge.net/DTD/sodipodi-0.dtd"
   xmlns="http://www.w3.org/2000/svg"
   xmlns:svg="http://www.w3.org/2000/svg"><sodipodi:namedview
     id="namedview7"
     pagecolor="#ffffff"
     bordercolor="#000000"
     borderopacity="0.25"
     inkscape:showpageshadow="2"
     inkscape:pageopacity="0.0"
     inkscape:pagecheckerboard="0"
     inkscape:deskcolor="#d1d1d1"
     inkscape:document-units="mm"
     showgrid="false" /><defs
     id="defs2" /><g
     inkscape:label="Camada 1"
     inkscape:groupmode="layer"
     id="layer1"
     transform="translate(-71.813043,-156.90931)"><g
       id="g388-7-8"
       style="fill:#000000"
       transform="translate(-1.5323392,14.737847)"><path
         d="m 75.157778,146.0939 0.833438,-0.50272 0.833438,0.50934 -0.218282,-0.9525 0.734224,-0.635 -0.965735,-0.086 -0.383645,-0.89959 -0.383646,0.89297 -0.965728,0.086 0.734218,0.64161 z m -0.800364,1.10463 0.429947,-1.8587 -1.441979,-1.25016 1.905,-0.16535 0.740834,-1.75287 0.740833,1.75287 1.904993,0.16535 -1.441976,1.25016 0.42996,1.8587 -1.63381,-0.98557 z m 1.633802,-2.31511 z"
         id="path122-0-3"
         style="fill:#000000;stroke-width:0.00661458" /><path
         style="fill:#000000;stroke-width:0.0341098;stroke-linecap:round;stroke-linejoin:round"
         d="m 75.212254,145.68304 c 0.0626,-0.26715 0.114003,-0.49591 0.114244,-0.50836 2.39e-4,-0.0124 -0.17065,-0.17285 -0.379761,-0.35646 -0.438219,-0.38478 -0.445116,-0.36296 0.126977,-0.40194 0.553549,-0.0377 0.493162,0.006 0.717156,-0.51716 0.108101,-0.25241 0.20827,-0.44703 0.222594,-0.43251 0.01432,0.0146 0.104594,0.20987 0.200602,0.43409 0.09601,0.22422 0.189502,0.42565 0.20776,0.44762 0.01853,0.0223 0.187317,0.051 0.382228,0.0649 0.191963,0.0137 0.41698,0.0347 0.500041,0.0466 l 0.151016,0.0217 -0.379396,0.32383 c -0.219465,0.1873 -0.380249,0.35024 -0.381417,0.38651 -0.0012,0.0345 0.04433,0.26301 0.100988,0.50783 0.05666,0.24483 0.09703,0.45111 0.08973,0.45841 -0.0073,0.007 -0.202627,-0.1024 -0.434052,-0.24368 -0.231425,-0.14132 -0.434948,-0.25694 -0.452279,-0.25694 -0.01732,0 -0.219282,0.11504 -0.448782,0.25564 -0.229504,0.14061 -0.42497,0.25565 -0.434368,0.25565 -0.0094,0 0.03413,-0.21858 0.09672,-0.48572 z"
         id="path384-9-4" /></g></g></svg>
