<?xml version="1.0" encoding="UTF-8" standalone="no"?>
<!-- Created with Inkscape (http://www.inkscape.org/) -->

<svg
   width="300"
   height="157"
   viewBox="0 0 79.37499 41.539579"
   version="1.1"
   id="svg1"
   inkscape:version="1.3 (0e150ed6c4, 2023-07-21)"
   sodipodi:docname="gaugue_1.svg"
   xmlns:inkscape="http://www.inkscape.org/namespaces/inkscape"
   xmlns:sodipodi="http://sodipodi.sourceforge.net/DTD/sodipodi-0.dtd"
   xmlns="http://www.w3.org/2000/svg"
   xmlns:svg="http://www.w3.org/2000/svg">
  <sodipodi:namedview
     id="namedview1"
     pagecolor="#ffffff"
     bordercolor="#000000"
     borderopacity="0.25"
     inkscape:showpageshadow="2"
     inkscape:pageopacity="0.0"
     inkscape:pagecheckerboard="0"
     inkscape:deskcolor="#d1d1d1"
     inkscape:document-units="mm"
     showguides="true"
     inkscape:zoom="1.4142136"
     inkscape:cx="288.85312"
     inkscape:cy="168.64497"
     inkscape:window-width="1920"
     inkscape:window-height="1017"
     inkscape:window-x="3512"
     inkscape:window-y="-8"
     inkscape:window-maximized="1"
     inkscape:current-layer="layer1">
    <sodipodi:guide
       position="25.267705,2.1166664"
       orientation="0,-1"
       id="guide1"
       inkscape:locked="false" />
    <sodipodi:guide
       position="39.687495,-19.186737"
       orientation="-1,0"
       id="guide4"
       inkscape:locked="false"
       inkscape:label=""
       inkscape:color="rgb(0,134,229)" />
  </sodipodi:namedview>
  <defs
     id="defs1" />
  <g
     inkscape:label="Camada 1"
     inkscape:groupmode="layer"
     id="layer1">
    <rect
       style="fill:none;stroke:none;stroke-width:0.104569;stroke-linecap:round;stroke-linejoin:round;stroke-dasharray:none"
       id="rect28"
       width="79.375"
       height="79.375"
       x="0"
       y="0" />
    <path
       id="path2"
       style="fill:#000000;stroke:none;stroke-width:0.1;stroke-linecap:round;stroke-linejoin:round;stroke-dasharray:none"
       d="M 39.6875,-3e-6 A 39.6875,39.6875 0 0 0 0,39.687497 h 10.19421 a 29.493101,29.493101 0 0 1 0.30024,-4.19716 29.493101,29.493101 0 0 1 0.894519,-4.111894 29.493101,29.493101 0 0 1 1.470711,-3.942911 29.493101,29.493101 0 0 1 2.016415,-3.693315 29.493101,29.493101 0 0 1 2.521809,-3.368787 29.493101,29.493101 0 0 1 2.975529,-2.975529 29.493101,29.493101 0 0 1 3.368787,-2.521809 29.493101,29.493101 0 0 1 3.693315,-2.016415 29.493101,29.493101 0 0 1 3.942911,-1.470711 29.493101,29.493101 0 0 1 4.111894,-0.894519 29.493101,29.493101 0 0 1 4.19716,-0.30024 29.493101,29.493101 0 0 1 1.44694,0.03566 29.493101,29.493101 0 0 1 1.44384,0.106453 29.493101,29.493101 0 0 1 1.436604,0.17725 29.493101,29.493101 0 0 1 1.42627,0.24753 29.493101,29.493101 0 0 1 1.412834,0.317294 29.493101,29.493101 0 0 1 1.394747,0.386023 29.493101,29.493101 0 0 1 1.374593,0.454235 29.493101,29.493101 0 0 1 1.350822,0.520899 29.493101,29.493101 0 0 1 1.323433,0.586527 29.493101,29.493101 0 0 1 1.292944,0.650607 29.493101,29.493101 0 0 1 1.259355,0.713651 29.493101,29.493101 0 0 1 1.223181,0.77463 29.493101,29.493101 0 0 1 1.18339,0.833541 29.493101,29.493101 0 0 1 1.141016,0.890385 29.493101,29.493101 0 0 1 1.096574,0.945678 29.493101,29.493101 0 0 1 1.047998,0.998389 29.493101,29.493101 0 0 1 0.998389,1.047998 29.493101,29.493101 0 0 1 0.945678,1.096574 29.493101,29.493101 0 0 1 0.890385,1.141016 29.493101,29.493101 0 0 1 0.833541,1.18339 29.493101,29.493101 0 0 1 0.77463,1.223181 29.493101,29.493101 0 0 1 0.713651,1.259355 29.493101,29.493101 0 0 1 0.650607,1.292944 29.493101,29.493101 0 0 1 0.586527,1.323433 29.493101,29.493101 0 0 1 0.520899,1.350822 29.493101,29.493101 0 0 1 0.454235,1.374593 29.493101,29.493101 0 0 1 0.386023,1.394747 29.493101,29.493101 0 0 1 0.317294,1.412834 29.493101,29.493101 0 0 1 0.24753,1.42627 29.493101,29.493101 0 0 1 0.17725,1.436604 29.493101,29.493101 0 0 1 0.106453,1.44384 29.493101,29.493101 0 0 1 0.03566,1.44694 H 79.375 A 39.6875,39.6875 0 0 0 39.6875,-3e-6 Z" />
    <path
       style="fill:#ffff00;stroke:none;stroke-width:0.1;stroke-linecap:round;stroke-linejoin:round;stroke-dasharray:none"
       d="M 39.630297,79.374999 H -5.1021722"
       id="path4-8"
       inkscape:transform-center-x="22.422402"
       inkscape:transform-center-y="-0.002067057" />
    <path
       style="fill:#000080;stroke:none;stroke-width:0.0499999;stroke-linecap:round;stroke-linejoin:round;stroke-dasharray:none"
       d="m 0.1305682,38.331506 c 0.19765525,-3.171489 0.47857716,-5.274026 1.0172739,-7.613702 0.1677604,-0.728618 0.3259945,-1.148681 0.4204687,-1.116214 0.083315,0.02863 2.2536531,0.610568 4.822975,1.293193 4.3704312,1.161146 4.6666832,1.258536 4.5968352,1.511192 -0.442022,1.598914 -0.867809,4.682188 -0.867809,6.284119 V 39.62135 H 5.0852472 0.05018185 Z"
       id="path15" />
    <path
       style="fill:#000080;stroke:none;stroke-width:0.0499999;stroke-linecap:round;stroke-linejoin:round;stroke-dasharray:none"
       d="M 6.3821534,30.634738 C 3.7919228,29.938442 1.6359106,29.331326 1.5910148,29.285593 1.4817329,29.174267 2.3363064,26.534987 3.0471477,24.788444 c 0.6185787,-1.519852 2.1011457,-4.550625 2.280154,-4.661258 0.1286598,-0.07952 8.5672803,4.76322 8.5551553,4.909614 -0.0045,0.05424 -0.377175,0.852935 -0.828184,1.774881 -0.451008,0.921948 -1.077099,2.444146 -1.391312,3.38266 l -0.571298,1.706388 z"
       id="path16" />
    <path
       style="fill:#008000;stroke:none;stroke-width:0.0499999;stroke-linecap:round;stroke-linejoin:round;stroke-dasharray:none"
       d="M 9.855729,22.317979 C 7.6365364,21.029566 5.7484451,19.92864 5.6599706,19.87148 5.2544929,19.609511 9.0691432,14.335558 11.035868,12.439025 l 0.545005,-0.525556 3.4938,3.491934 3.4938,3.491931 -0.800012,0.870083 c -0.924407,1.005371 -2.589218,3.20036 -3.193452,4.210444 -0.228508,0.381992 -0.475976,0.691867 -0.549927,0.68861 -0.07395,-0.0033 -1.95016,-1.060077 -4.169353,-2.348492 z"
       id="path17" />
    <path
       style="fill:#008000;stroke:none;stroke-width:0.0499999;stroke-linecap:round;stroke-linejoin:round;stroke-dasharray:none"
       d="M 15.27337,15.201706 11.773958,11.69491 12.766146,10.73923 C 14.415564,9.1505025 17.30825,6.937419 18.983854,5.9823023 l 0.595312,-0.3393387 2.47086,4.2946134 2.47086,4.294611 -1.081798,0.700161 c -1.268465,0.820976 -2.898469,2.097318 -3.932384,3.079182 l -0.733921,0.696968 z"
       id="path18" />
    <path
       style="fill:#ffcc00;stroke:none;stroke-width:0.0499999;stroke-linecap:round;stroke-linejoin:round;stroke-dasharray:none"
       d="M 22.299127,9.8695659 C 20.960291,7.5478974 19.866068,5.5978627 19.867522,5.536154 c 0.0038,-0.1632083 2.640656,-1.5230475 4.407999,-2.2732603 1.778843,-0.7550997 4.584226,-1.6993288 4.701225,-1.58233 0.165179,0.1651793 2.579092,9.4139413 2.479619,9.5005103 -0.05678,0.04941 -0.758084,0.311057 -1.558449,0.58143 -1.114554,0.37651 -3.518369,1.457663 -5.095812,2.291929 -0.0378,0.02 -1.164141,-1.863199 -2.502977,-4.1848671 z"
       id="path19" />
    <path
       style="fill:#ffff00;stroke:none;stroke-width:0.0499999;stroke-linecap:round;stroke-linejoin:round;stroke-dasharray:none"
       d="M 31.762705,10.933913 C 30.942549,8.0867002 29.306395,1.5987069 29.388964,1.5210993 29.709446,1.2198712 34.330767,0.40618483 36.5125,0.26684202 c 0.654843,-0.0418253 1.532929,-0.10704777 1.951302,-0.1449414 l 0.760677,-0.0688975 V 5.0664947 10.079986 l -1.506736,0.08606 c -1.533493,0.08758 -3.955598,0.459354 -5.202346,0.79851 -0.626266,0.170365 -0.695606,0.167542 -0.752692,-0.03064 z"
       id="path20" />
    <path
       style="fill:#ffff00;stroke:none;stroke-width:0.0499999;stroke-linecap:round;stroke-linejoin:round;stroke-dasharray:none"
       d="m 45.972864,10.760489 c -1.337429,-0.316367 -4.067696,-0.64018 -5.397732,-0.64018 h -1.08607 V 5.0836689 0.04702883 l 1.554427,0.08595783 c 3.179458,0.17582357 8.052832,0.90580894 8.42151,1.26146454 0.104757,0.1010549 -2.187331,9.0614528 -2.420085,9.4607748 -0.05529,0.09485 -0.398939,0.06448 -1.07205,-0.09474 z"
       id="path21" />
    <path
       style="fill:#ffcc00;stroke:none;stroke-width:0.0499999;stroke-linecap:round;stroke-linejoin:round;stroke-dasharray:none"
       d="m 52.585937,13.068556 c -0.909505,-0.452136 -2.446838,-1.086578 -3.416295,-1.40987 -0.969457,-0.323294 -1.786313,-0.61147 -1.815237,-0.640395 -0.03863,-0.03863 2.292395,-8.9510229 2.489345,-9.5177075 0.04052,-0.1165781 3.573635,1.0454481 5.028552,1.6538628 0.639037,0.2672318 1.879505,0.8456083 2.756593,1.2852796 1.275281,0.6392783 1.577808,0.8434414 1.51034,1.0192676 -0.109607,0.2856283 -4.714693,8.2786245 -4.819693,8.3654815 -0.04398,0.03638 -0.8241,-0.303784 -1.733605,-0.755919 z"
       id="path22" />
    <path
       style="fill:#ff6600;stroke:none;stroke-width:0.0499999;stroke-linecap:round;stroke-linejoin:round;stroke-dasharray:none"
       d="m 60.180137,18.305729 c -0.541224,-0.604007 -2.818199,-2.415916 -4.082055,-3.248308 -0.731134,-0.481531 -1.378778,-0.919062 -1.439212,-0.972286 -0.09868,-0.0869 4.356212,-8.0124537 4.74485,-8.4414094 0.131826,-0.1455049 0.358169,-0.054531 1.268473,0.5098336 2.049145,1.270418 4.176192,2.9089482 5.910808,4.5532758 l 0.967618,0.917257 -3.479583,3.48144 c -1.913768,1.914795 -3.515423,3.481443 -3.559233,3.481443 -0.04381,0 -0.193059,-0.12656 -0.331666,-0.281246 z"
       id="path23" />
    <path
       style="fill:#ff6600;stroke:none;stroke-width:0.0499999;stroke-linecap:round;stroke-linejoin:round;stroke-dasharray:none"
       d="m 64.900103,24.161646 c -0.764839,-1.262423 -1.946116,-2.848298 -3.071167,-4.123071 l -1.074605,-1.217618 3.486549,-3.488409 3.486547,-3.488413 0.57713,0.560221 c 1.39336,1.35254 3.520477,4.0747 4.873758,6.23715 l 0.820626,1.311304 -3.9927,2.305251 c -2.195986,1.267889 -4.141528,2.382732 -4.323429,2.477429 -0.319056,0.166103 -0.346684,0.145846 -0.782709,-0.573844 z"
       id="path24" />
    <path
       style="fill:#ff0000;stroke:none;stroke-width:0.0499999;stroke-linecap:round;stroke-linejoin:round;stroke-dasharray:none"
       d="M 67.761903,30.371803 C 67.413817,29.310797 66.7733,27.70408 66.338537,26.801314 c -0.434766,-0.902763 -0.77044,-1.66143 -0.745945,-1.685925 0.0245,-0.0245 1.706808,-1.003607 3.738472,-2.175803 2.031664,-1.172197 3.941083,-2.276105 4.243155,-2.453127 l 0.549217,-0.321863 0.793824,1.559367 c 0.436605,0.857652 1.03742,2.14586 1.335145,2.862688 0.719527,1.732381 1.766578,5.00367 1.637676,5.116571 -0.05642,0.04942 -1.709925,0.514958 -3.674457,1.034531 -1.964531,0.519573 -4.07789,1.083834 -4.696354,1.253914 l -1.124479,0.309231 z"
       id="path25" />
    <path
       style="fill:#ff0000;stroke:none;stroke-width:0.0499999;stroke-linecap:round;stroke-linejoin:round;stroke-dasharray:none"
       d="m 69.213644,37.934631 c -0.06838,-1.408091 -0.363492,-3.547356 -0.698997,-5.067003 l -0.07453,-0.337579 4.793385,-1.284568 c 2.636361,-0.706512 4.808368,-1.268976 4.826683,-1.249924 0.01831,0.01905 0.187052,0.782505 0.374972,1.696554 0.369766,1.798536 0.671587,4.251481 0.800664,6.507104 l 0.08138,1.422135 h -5.010824 -5.010822 z"
       id="path26" />
  </g>
</svg>
